<svg width="167" height="51" viewBox="0 0 167 51" fill="none" xmlns="http://www.w3.org/2000/svg">
<g id="Reqcruit logo">
<g id="Group">
<path id="Vector" d="M40.0568 30.3687H0V19.7294H16.0814C16.0814 19.7228 16.0858 19.7161 16.0858 19.7095H27.1135C27.1091 19.7161 27.1091 19.7228 27.1069 19.7294H29.0136C29.0136 19.7051 28.3185 18.1956 27.8727 17.4806L27.8903 17.4695C25.3657 13.356 20.8438 10.6393 15.6113 10.6393C15.5738 10.6393 15.5407 10.6437 15.5054 10.6437V1.71109e-05H15.6113C19.3763 -0.00439662 22.9492 0.845249 26.1579 2.34812C26.8663 2.68357 27.5174 3.0168 28.2258 3.42286L28.2147 3.4339C31.3419 5.26559 34.0342 7.76155 36.1131 10.7165L36.1396 10.6923C37.4461 12.5637 38.4634 14.5675 39.1961 16.642V16.6464C39.5558 17.6483 39.8537 18.6789 40.0833 19.7338H40.059C40.8115 23.2471 40.8115 26.8752 40.0568 30.3687Z" fill="#00C853"/>
<path id="Vector_2" d="M40.635 39.4588V50.1025H40.529C36.8369 50.1025 33.3258 49.2882 30.1634 47.8383C29.1747 47.3837 28.2147 46.8761 27.2901 46.2846C24.4322 44.4927 21.9627 42.1401 20.0273 39.386L20.0008 39.4058C19.0364 38.0265 18.2287 36.5678 17.5755 35.0649H30.1303C32.7366 37.7816 36.4154 39.4654 40.5312 39.4654C40.5621 39.4654 40.5997 39.4588 40.635 39.4588Z" fill="#00C853"/>
</g>
<g id="Group_2">
<g id="Group_3">
<g id="Group_4">
<path id="Vector_3" d="M62.2799 26.3126H59.806V36.1685H53.1611V8.4834H63.2377C70.2136 8.4834 72.9457 10.9573 72.9457 16.1986V18.6725C72.9457 21.4399 72.1335 23.841 68.7372 25.2423L74.0535 36.1685H67.1129L62.2799 26.3126ZM63.4606 21.0713C65.9698 21.0713 66.6363 20.3696 66.6363 18.1914V16.9357C66.6363 14.8325 65.972 14.0557 63.4606 14.0557H59.806V21.0691H63.4606V21.0713Z" fill="#121212"/>
<path id="Vector_4" d="M73.8328 28.8595V23.5078C73.8328 19.3369 75.9381 15.8655 82.6558 15.8655C89.3382 15.8655 91.3685 19.2243 91.3685 24.5031V28.0849H80.0716V29.5613C80.0716 30.8523 80.3298 31.8873 82.6558 31.8873C84.7965 31.8873 85.0922 31.223 85.2776 29.5613L91.3685 30.4837C90.9625 33.6219 89.1904 36.5019 82.6558 36.5019C75.9757 36.5019 73.8328 32.8848 73.8328 28.8595ZM85.1297 24.0242V22.9164C85.1297 21.4775 84.6861 20.6654 82.6558 20.6654C80.6255 20.6654 80.0716 21.5879 80.0716 22.9164V24.0242H85.1297Z" fill="#121212"/>
</g>
<g id="Group_5">
<path id="Vector_5" d="M112.221 16.1982H118.681V18.5618C119.751 16.9751 121.227 16.1982 123.295 16.1982H124.035V21.2189H123.295C120.784 21.2189 118.681 21.7 118.681 23.4699V36.1681H112.221V16.1982Z" fill="#121212"/>
<path id="Vector_6" d="M125.288 30.6686V16.1982H131.748V29.488C131.748 30.6333 132.745 31.1873 134.332 31.1873C135.623 31.1873 136.806 30.5605 136.806 29.1945V16.2004H143.265V36.1704H136.806V33.9194C135.515 35.729 133.926 36.5036 131.564 36.5036C126.692 36.5014 125.288 33.9172 125.288 30.6686Z" fill="#121212"/>
<path id="Vector_7" d="M145.479 16.1982V36.1704H151.938V16.1982H145.479Z" fill="#121212"/>
<path id="Vector_8" d="M151.938 11.381C151.938 12.981 150.641 14.2786 149.041 14.2786H148.378C146.779 14.2786 145.481 12.981 145.481 11.381C145.481 9.78104 146.779 8.4834 148.378 8.4834H149.041C150.641 8.48119 151.938 9.77883 151.938 11.381Z" fill="#121212"/>
<path id="Vector_9" d="M163.05 36.1683C157.292 36.1683 156.109 34.1004 156.109 29.4859V21.2918H151.567V16.1984H156.109V8.70386H162.569V16.1984H166.998V21.2918H162.569V29.338C162.569 30.5562 162.641 31.0726 163.972 31.0726H167V36.1661H163.05V36.1683Z" fill="#121212"/>
</g>
</g>
<g id="Group_6">
<path id="Vector_10" d="M101.408 21.0339C103.034 21.0339 104.065 21.8814 104.065 23.2121V18.154C102.921 16.6401 101.408 15.8655 99.5604 15.8655C93.8402 15.8655 92.3263 18.8558 92.3263 23.1393V29.228C92.3263 33.5844 93.913 36.5019 99.5229 36.5019C101.555 36.5019 103.069 35.7626 104.062 34.2509V29.3759C104.062 30.7419 103.032 31.5188 101.405 31.5188C99.673 31.5188 98.7836 30.7441 98.7836 29.1574V23.3975C98.7858 21.9211 99.6752 21.0339 101.408 21.0339Z" fill="#00C853"/>
<path id="Vector_11" d="M115.922 39.7038C115.92 41.5399 115.918 43.376 115.915 45.2121C114.83 45.0731 113.653 45.0422 112.592 44.784C110.908 44.3757 109.196 43.4665 107.863 42.3631C106.523 41.2552 105.433 39.8428 104.718 38.2583C104.352 37.4484 104.144 36.6848 104.091 35.8021C104.067 35.3872 104.067 34.9701 104.067 34.5552C104.067 33.2112 104.067 31.8672 104.067 30.5232C104.067 28.6938 104.067 26.8643 104.067 25.0326C104.067 23.2891 104.067 21.5479 104.067 19.8045C104.067 18.7209 104.067 17.6396 104.067 16.556C104.067 16.4368 104.067 16.3155 104.067 16.1963H110.529C110.529 16.9797 110.529 17.7654 110.529 18.5488C110.529 20.3452 110.529 22.1394 110.529 23.9358C110.529 25.9087 110.529 27.8838 110.529 29.8568C110.529 30.649 110.529 31.4435 110.529 32.2358C110.529 33.2906 110.405 34.3588 110.632 35.4004C110.846 36.3803 111.327 37.3049 112.025 38.0288C113.029 39.077 114.466 39.695 115.922 39.7038Z" fill="#00C853"/>
</g>
</g>
</g>
</svg>
