<svg width="167" height="51" viewBox="0 0 167 51" fill="none" xmlns="http://www.w3.org/2000/svg">
<g id="Reqcruit logo">
<g id="Group">
<path id="Vector" d="M40.0568 30.3687H0V19.7294H16.0814C16.0814 19.7228 16.0858 19.7161 16.0858 19.7095H27.1135C27.1091 19.7161 27.1091 19.7228 27.1069 19.7294H29.0136C29.0136 19.7051 28.3185 18.1956 27.8727 17.4806L27.8903 17.4695C25.3657 13.356 20.8438 10.6393 15.6113 10.6393C15.5738 10.6393 15.5407 10.6437 15.5054 10.6437V1.71109e-05H15.6113C19.3763 -0.00439662 22.9492 0.845249 26.1579 2.34812C26.8663 2.68357 27.5174 3.0168 28.2258 3.42286L28.2147 3.4339C31.3419 5.26559 34.0342 7.76155 36.1131 10.7165L36.1396 10.6923C37.4461 12.5637 38.4634 14.5675 39.1961 16.642V16.6464C39.5558 17.6483 39.8537 18.6789 40.0833 19.7338H40.059C40.8115 23.2471 40.8115 26.8752 40.0568 30.3687Z" fill="#00C853"/>
<path id="Vector_2" d="M40.635 39.4588V50.1025H40.529C36.8369 50.1025 33.3258 49.2882 30.1634 47.8383C29.1747 47.3837 28.2147 46.8761 27.2901 46.2846C24.4322 44.4927 21.9627 42.1401 20.0273 39.386L20.0008 39.4058C19.0364 38.0265 18.2287 36.5678 17.5755 35.0649H30.1303C32.7366 37.7816 36.4154 39.4654 40.5312 39.4654C40.5621 39.4654 40.5997 39.4588 40.635 39.4588Z" fill="#00C853"/>
</g>
<g id="Group_2">
<g id="Group_3">
<g id="Group_4">
<path id="Vector_3" d="M62.2799 26.3131H59.806V36.169H53.1611V8.48389H63.2377C70.2136 8.48389 72.9457 10.9578 72.9457 16.1991V18.673C72.9457 21.4404 72.1335 23.8414 68.7372 25.2428L74.0535 36.169H67.1129L62.2799 26.3131ZM63.4606 21.0718C65.9698 21.0718 66.6363 20.3701 66.6363 18.1919V16.9362C66.6363 14.833 65.972 14.0562 63.4606 14.0562H59.806V21.0696H63.4606V21.0718Z" fill="white"/>
<path id="Vector_4" d="M73.8328 28.8597V23.5081C73.8328 19.3371 75.9381 15.8657 82.6558 15.8657C89.3382 15.8657 91.3685 19.2246 91.3685 24.5034V28.0851H80.0716V29.5615C80.0716 30.8525 80.3298 31.8875 82.6558 31.8875C84.7965 31.8875 85.0922 31.2233 85.2776 29.5615L91.3685 30.484C90.9625 33.6221 89.1903 36.5021 82.6558 36.5021C75.9756 36.5021 73.8328 32.8851 73.8328 28.8597ZM85.1297 24.0245V22.9167C85.1297 21.4778 84.6861 20.6657 82.6558 20.6657C80.6255 20.6657 80.0716 21.5881 80.0716 22.9167V24.0245H85.1297Z" fill="white"/>
</g>
<g id="Group_5">
<path id="Vector_5" d="M112.221 16.1992H118.681V18.5628C119.751 16.976 121.227 16.1992 123.295 16.1992H124.035V21.2198H123.295C120.784 21.2198 118.681 21.7009 118.681 23.4708V36.1691H112.221V16.1992Z" fill="white"/>
<path id="Vector_6" d="M125.288 30.6696V16.1992H131.748V29.4889C131.748 30.6343 132.745 31.1882 134.332 31.1882C135.623 31.1882 136.806 30.5615 136.806 29.1954V16.2014H143.265V36.1713H136.806V33.9203C135.515 35.73 133.926 36.5046 131.564 36.5046C126.692 36.5024 125.288 33.9181 125.288 30.6696Z" fill="white"/>
<path id="Vector_7" d="M145.479 16.1992V36.1713H151.938V16.1992H145.479Z" fill="white"/>
<path id="Vector_8" d="M151.938 11.3815C151.938 12.9815 150.641 14.2791 149.041 14.2791H148.378C146.779 14.2791 145.481 12.9815 145.481 11.3815C145.481 9.78153 146.779 8.48389 148.378 8.48389H149.041C150.641 8.48168 151.938 9.77932 151.938 11.3815Z" fill="white"/>
<path id="Vector_9" d="M163.05 36.169C157.292 36.169 156.109 34.1012 156.109 29.4866V21.2925H151.567V16.1991H156.109V8.70459H162.569V16.1991H166.998V21.2925H162.569V29.3388C162.569 30.5569 162.641 31.0734 163.972 31.0734H167V36.1668H163.05V36.169Z" fill="white"/>
</g>
</g>
<g id="Group_6">
<path id="Vector_10" d="M101.408 21.0337C103.034 21.0337 104.065 21.8811 104.065 23.2119V18.1538C102.921 16.6398 101.408 15.8652 99.5604 15.8652C93.8402 15.8652 92.3263 18.8555 92.3263 23.1391V29.2278C92.3263 33.5841 93.913 36.5016 99.5229 36.5016C101.555 36.5016 103.069 35.7623 104.062 34.2506V29.3756C104.062 30.7417 103.032 31.5185 101.405 31.5185C99.673 31.5185 98.7836 30.7439 98.7836 29.1572V23.3973C98.7858 21.9209 99.6752 21.0337 101.408 21.0337Z" fill="#00C853"/>
<path id="Vector_11" d="M115.922 39.7038C115.92 41.5399 115.918 43.376 115.915 45.2121C114.83 45.0731 113.653 45.0422 112.592 44.784C110.908 44.3757 109.196 43.4665 107.863 42.3631C106.523 41.2552 105.433 39.8428 104.718 38.2583C104.352 37.4484 104.144 36.6848 104.091 35.8021C104.067 35.3872 104.067 34.9701 104.067 34.5552C104.067 33.2112 104.067 31.8672 104.067 30.5232C104.067 28.6938 104.067 26.8643 104.067 25.0326C104.067 23.2891 104.067 21.5479 104.067 19.8045C104.067 18.7209 104.067 17.6396 104.067 16.556C104.067 16.4368 104.067 16.3155 104.067 16.1963H110.529C110.529 16.9797 110.529 17.7654 110.529 18.5488C110.529 20.3452 110.529 22.1394 110.529 23.9358C110.529 25.9087 110.529 27.8838 110.529 29.8568C110.529 30.649 110.529 31.4435 110.529 32.2358C110.529 33.2906 110.405 34.3588 110.632 35.4004C110.846 36.3803 111.327 37.3049 112.025 38.0288C113.029 39.077 114.466 39.695 115.922 39.7038Z" fill="#00C853"/>
</g>
</g>
</g>
</svg>
